<?xml version="1.0" standalone="no"?>
<!DOCTYPE svg PUBLIC "-//W3C//DTD SVG 20010904//EN"
 "http://www.w3.org/TR/2001/REC-SVG-20010904/DTD/svg10.dtd">
<svg version="1.0" xmlns="http://www.w3.org/2000/svg"
 width="200.000000pt" height="200.000000pt" viewBox="0 0 200.000000 200.000000"
 preserveAspectRatio="xMidYMid meet">
<metadata>
Created by potrace 1.13, written by Peter Selinger 2001-2015
</metadata>
<g transform="translate(0.000000,200.000000) scale(0.100000,-0.100000)"
fill="#000000" stroke="none">
<path d="M833 1985 c-501 -91 -855 -530 -830 -1030 23 -449 321 -811 763 -926
128 -34 340 -34 468 0 373 97 640 364 737 737 34 128 34 340 0 468 -77 296
-262 527 -528 660 -186 93 -413 127 -610 91z m427 -54 c348 -101 614 -389 685
-740 24 -116 16 -344 -14 -449 -95 -327 -349 -580 -676 -674 -70 -20 -102 -23
-255 -23 -152 0 -185 3 -253 23 -331 96 -584 348 -679 677 -20 70 -23 102 -23
255 0 153 3 185 23 255 100 344 383 613 727 689 105 23 364 16 465 -13z"/>
<path d="M865 1899 c-358 -52 -658 -328 -747 -686 -30 -123 -30 -303 0 -428
45 -184 165 -372 312 -492 83 -68 243 -148 345 -174 484 -122 976 168 1107
651 33 122 33 338 0 460 -122 449 -556 735 -1017 669z m-331 -432 c12 -9 20
-31 24 -65 4 -48 3 -52 -17 -52 -18 0 -21 6 -21 39 0 45 -21 69 -39 47 -8 -9
-11 -53 -9 -132 3 -111 4 -119 23 -119 17 0 20 8 23 48 3 40 6 47 24 47 19 0
20 -5 16 -51 -6 -57 -24 -81 -63 -81 -50 0 -60 22 -63 143 -2 61 -1 121 2 134
13 50 61 70 100 42z m180 -9 c12 -17 16 -50 16 -143 0 -141 -10 -165 -65 -165
-58 0 -67 26 -63 175 3 112 5 128 22 141 30 21 72 17 90 -8z m170 7 c8 -8 18
-36 22 -61 9 -65 -1 -221 -16 -239 -19 -23 -87 -20 -100 4 -5 11 -10 75 -10
143 0 96 4 129 16 146 18 26 65 30 88 7z m106 -65 l5 -75 24 65 c27 72 46 99
60 85 5 -6 -2 -39 -20 -85 l-29 -75 30 -75 c35 -88 36 -90 11 -90 -13 0 -25
18 -44 68 l-25 67 -1 -67 c-1 -66 -2 -68 -26 -68 l-25 0 0 158 c0 87 3 161 6
165 19 18 29 -5 34 -73z m295 -32 l30 -93 5 99 c3 67 9 101 18 104 9 3 12 -34
12 -162 0 -200 -11 -215 -55 -73 -16 50 -32 96 -37 102 -4 5 -8 -37 -8 -93 0
-84 -3 -102 -15 -102 -13 0 -15 24 -15 158 0 87 3 162 7 165 13 14 30 -15 58
-105z m227 95 c12 -11 18 -30 18 -60 0 -36 -3 -43 -20 -43 -17 0 -20 7 -20 39
0 46 -17 62 -37 36 -9 -13 -13 -50 -13 -114 0 -113 6 -141 30 -141 19 0 30 27
30 78 0 22 -5 32 -15 32 -8 0 -15 7 -15 15 0 10 10 15 30 15 l30 0 0 -85 c0
-50 -4 -85 -10 -85 -5 0 -10 5 -10 11 0 8 -4 8 -14 0 -8 -7 -27 -11 -43 -9
-41 5 -56 56 -51 185 3 82 7 105 22 122 23 25 63 27 88 4z m-728 -399 c10 -10
16 -33 16 -65 0 -43 -3 -50 -17 -47 -13 2 -19 16 -23 47 -3 25 -11 46 -17 49
-21 6 -33 -44 -33 -133 0 -89 12 -139 33 -133 6 3 14 27 17 54 4 36 10 50 23
52 14 3 17 -4 17 -49 0 -61 -19 -89 -60 -89 -52 0 -61 25 -62 164 0 108 2 129
17 146 22 24 68 26 89 4z m106 -128 l0 -145 27 -3 c17 -2 29 -10 31 -20 3 -15
-4 -18 -47 -18 l-51 0 0 165 c0 158 1 165 20 165 19 0 20 -7 20 -144z m132 -3
c3 -140 4 -148 23 -148 19 0 20 8 23 148 2 139 4 147 22 147 19 0 20 -7 20
-143 0 -165 -8 -187 -65 -187 -57 0 -65 22 -65 187 0 136 1 143 20 143 18 0
20 -8 22 -147z m249 131 c12 -15 14 -41 10 -124 0 -14 2 -53 5 -87 7 -78 -12
-103 -81 -103 l-45 0 0 165 0 165 49 0 c33 0 53 -5 62 -16z m-468 -376 c18
-12 69 -58 114 -101 l82 -79 81 72 c80 70 164 130 183 130 28 0 -58 -150 -145
-253 l-32 -37 82 -84 c45 -46 82 -88 82 -93 0 -6 -9 -18 -19 -27 -24 -22 -61
-13 -61 14 0 11 -13 29 -29 41 -16 12 -44 42 -61 66 -21 29 -36 41 -43 35 -14
-11 -57 -10 -74 1 -14 9 -153 -126 -153 -148 0 -22 -38 -28 -65 -11 -14 9 -25
21 -25 26 0 9 99 107 165 163 l30 25 -32 44 c-75 100 -145 238 -122 238 6 0
25 -10 42 -22z"/>
</g>
</svg>
